<?xml version="1.0" encoding="UTF-8" standalone="no"?><!DOCTYPE svg PUBLIC "-//W3C//DTD SVG 1.1//EN" "http://www.w3.org/Graphics/SVG/1.1/DTD/svg11.dtd"><svg width="100%" height="100%" viewBox="0 0 20 20" version="1.1" xmlns="http://www.w3.org/2000/svg" xmlns:xlink="http://www.w3.org/1999/xlink" xml:space="preserve" xmlns:serif="http://www.serif.com/" style="fill-rule:evenodd;clip-rule:evenodd;stroke-linejoin:round;stroke-miterlimit:1.41421;"><path id="Forma-1" serif:id="Forma 1" d="M12.792,17.056l-0.222,1.029c-0.664,0.297 -1.194,0.524 -1.589,0.68c-0.396,0.156 -0.856,0.234 -1.379,0.234c-0.804,0 -1.43,-0.224 -1.876,-0.668c-0.446,-0.447 -0.669,-1.012 -0.669,-1.698c0,-0.266 0.016,-0.539 0.05,-0.817c0.034,-0.278 0.088,-0.592 0.162,-0.943l0.83,-3.337c0.074,-0.319 0.136,-0.622 0.187,-0.909c0.051,-0.284 0.075,-0.546 0.075,-0.782c0,-0.426 -0.077,-0.724 -0.232,-0.892c-0.155,-0.167 -0.45,-0.252 -0.888,-0.252c-0.215,0 -0.435,0.04 -0.66,0.115c-0.226,0.076 -0.419,0.149 -0.581,0.217l0.222,-1.029c0.544,-0.251 1.064,-0.467 1.561,-0.645c0.497,-0.18 0.967,-0.269 1.411,-0.269c0.799,0 1.415,0.219 1.848,0.657c0.433,0.439 0.649,1.008 0.649,1.709c0,0.145 -0.014,0.4 -0.045,0.766c-0.03,0.366 -0.085,0.701 -0.166,1.006l-0.827,3.324c-0.068,0.267 -0.128,0.572 -0.181,0.915c-0.055,0.342 -0.081,0.602 -0.081,0.777c0,0.441 0.086,0.743 0.26,0.903c0.175,0.16 0.476,0.24 0.905,0.24c0.2,0 0.429,-0.041 0.683,-0.12c0.254,-0.08 0.439,-0.15 0.553,-0.211Zm0.21,-13.954c0,0.579 -0.192,1.074 -0.579,1.48c-0.385,0.408 -0.849,0.613 -1.392,0.613c-0.544,0 -1.01,-0.205 -1.399,-0.613c-0.389,-0.407 -0.584,-0.901 -0.584,-1.48c0,-0.578 0.195,-1.073 0.584,-1.485c0.389,-0.412 0.855,-0.617 1.399,-0.617c0.543,0 1.007,0.206 1.392,0.617c0.387,0.412 0.579,0.907 0.579,1.485Z" style="fill:#316f8f;fill-rule:nonzero;"/></svg>