<?xml version="1.0" encoding="UTF-8" standalone="no"?><!DOCTYPE svg PUBLIC "-//W3C//DTD SVG 1.1//EN" "http://www.w3.org/Graphics/SVG/1.1/DTD/svg11.dtd"><svg width="100%" height="100%" viewBox="0 0 20 20" version="1.1" xmlns="http://www.w3.org/2000/svg" xmlns:xlink="http://www.w3.org/1999/xlink" xml:space="preserve" xmlns:serif="http://www.serif.com/" style="fill-rule:evenodd;clip-rule:evenodd;stroke-linejoin:round;stroke-miterlimit:1.41421;"><path id="Shape-1" serif:id="Shape 1" d="M6.433,3.225l2.462,0l0,-1.725l1.478,0l0,1.725l2.462,0l0,-1.725l1.478,0l0,1.725l2.955,0l0,14.294l-15.268,0l0,-14.294l2.955,0l0,-1.725l1.478,0l0,1.725Zm9.358,12.815l0,-9.365l-12.313,0l0,9.365l12.313,0Zm-5.418,-2.464l-1.478,0l0,-1.479l1.478,0l0,1.479Zm-2.955,0l-1.478,0l0,-1.479l1.478,0l0,1.479Zm5.91,0l-1.478,0l0,-1.479l1.478,0l0,1.479Zm-2.955,-2.958l-1.478,0l0,-1.478l1.478,0l0,1.478Zm-2.955,0l-1.478,0l0,-1.478l1.478,0l0,1.478Zm5.91,0l-1.478,0l0,-1.478l1.478,0l0,1.478Z" style="fill:#eb4b4b;"/></svg>