<?xml version="1.0" encoding="UTF-8" standalone="no"?><!DOCTYPE svg PUBLIC "-//W3C//DTD SVG 1.1//EN" "http://www.w3.org/Graphics/SVG/1.1/DTD/svg11.dtd"><svg width="100%" height="100%" viewBox="0 0 28 28" version="1.1" xmlns="http://www.w3.org/2000/svg" xmlns:xlink="http://www.w3.org/1999/xlink" xml:space="preserve" xmlns:serif="http://www.serif.com/" style="fill-rule:evenodd;clip-rule:evenodd;stroke-linejoin:round;stroke-miterlimit:1.41421;"><path id="Forma-1-copy-3" serif:id="Forma 1 copy 3" d="M24.893,7.997l-9.932,7.68c-0.372,0.284 -0.858,0.423 -1.343,0.417c-0.486,0.006 -0.972,-0.133 -1.344,-0.417l-9.933,-7.68c-0.738,-0.569 -1.341,-0.264 -1.341,0.678l0,12.601c0,0.942 0.757,1.713 1.683,1.713l21.869,0c0.925,0 1.682,-0.771 1.682,-1.713l0,-12.601c0,-0.942 -0.603,-1.247 -1.341,-0.678Zm-1.017,-2.997c0.926,0.004 1.086,0.481 0.362,1.063l-9.089,7.332c-0.413,0.333 -0.981,0.48 -1.532,0.452c-0.552,0.028 -1.12,-0.12 -1.532,-0.452l-9.089,-7.332c-0.723,-0.582 -0.563,-1.059 0.363,-1.063l20.517,0Z" style="fill:#fff;"/></svg>