<?xml version="1.0" encoding="UTF-8" standalone="no"?><!DOCTYPE svg PUBLIC "-//W3C//DTD SVG 1.1//EN" "http://www.w3.org/Graphics/SVG/1.1/DTD/svg11.dtd"><svg width="100%" height="100%" viewBox="0 0 28 28" version="1.1" xmlns="http://www.w3.org/2000/svg" xmlns:xlink="http://www.w3.org/1999/xlink" xml:space="preserve" xmlns:serif="http://www.serif.com/" style="fill-rule:evenodd;clip-rule:evenodd;stroke-linejoin:round;stroke-miterlimit:1.41421;"><path id="Forma-1" serif:id="Forma 1" d="M19.785,2.782c-1.647,-1.188 -3.715,-1.782 -6.204,-1.782c-1.895,0 -3.493,0.419 -4.793,1.254c-2.06,1.309 -3.156,3.531 -3.288,6.665l4.776,0c0,-0.912 0.266,-1.792 0.799,-2.64c0.533,-0.847 1.437,-1.27 2.712,-1.27c1.296,0 2.19,0.344 2.678,1.031c0.489,0.688 0.734,1.45 0.734,2.285c0,0.726 -0.365,1.391 -0.804,1.996c-0.241,0.353 -0.559,0.677 -0.955,0.974c0,0 -2.59,1.661 -3.727,2.995c-0.659,0.775 -0.718,1.933 -0.777,3.596c-0.003,0.118 0.042,0.363 0.456,0.363c0.414,0 3.346,0 3.714,0c0.369,0 0.445,-0.275 0.45,-0.394c0.026,-0.606 0.095,-0.914 0.205,-1.264c0.209,-0.66 0.776,-1.237 1.413,-1.732l1.315,-0.908c1.186,-0.924 2.134,-1.683 2.551,-2.277c0.714,-0.978 1.215,-2.183 1.215,-3.613c0,-2.331 -0.823,-4.091 -2.47,-5.279Zm-6.281,18.33c-1.646,-0.049 -3.004,1.089 -3.056,2.874c-0.052,1.785 1.24,2.964 2.886,3.012c1.718,0.051 3.04,-1.051 3.091,-2.835c0.052,-1.785 -1.203,-3.001 -2.921,-3.051Z" style="fill:#fff;fill-rule:nonzero;"/></svg>