<?xml version="1.0" encoding="UTF-8" standalone="no"?><!DOCTYPE svg PUBLIC "-//W3C//DTD SVG 1.1//EN" "http://www.w3.org/Graphics/SVG/1.1/DTD/svg11.dtd"><svg width="100%" height="100%" viewBox="0 0 28 28" version="1.1" xmlns="http://www.w3.org/2000/svg" xmlns:xlink="http://www.w3.org/1999/xlink" xml:space="preserve" xmlns:serif="http://www.serif.com/" style="fill-rule:evenodd;clip-rule:evenodd;stroke-linejoin:round;stroke-miterlimit:1.41421;"><path id="Forma-1-copy-2" serif:id="Forma 1 copy 2" d="M25.992,10.848l0,0.408l-4.175,11.506c-0.112,0.422 -0.528,0.739 -1,0.739l-18.27,0c-0.25,0 -0.231,-0.108 -0.231,-0.408l0,-0.408l4.676,-11.667c0.026,-0.094 0.108,-0.162 0.223,-0.17l18.777,0Zm-15.71,-7.348l2.041,2.857l10.104,0c0.615,0 1.115,0.5 1.115,1.116l0,2.558l-16.845,0c-0.472,0 -0.888,0.318 -1,0.739l-4.197,10.906l0,-17.061c0,-0.61 0.493,-1.107 1.115,-1.115l7.667,0Z" style="fill:#fff;"/></svg>