<?xml version="1.0" encoding="UTF-8" standalone="no"?><!DOCTYPE svg PUBLIC "-//W3C//DTD SVG 1.1//EN" "http://www.w3.org/Graphics/SVG/1.1/DTD/svg11.dtd"><svg width="100%" height="100%" viewBox="0 0 20 20" version="1.1" xmlns="http://www.w3.org/2000/svg" xmlns:xlink="http://www.w3.org/1999/xlink" xml:space="preserve" xmlns:serif="http://www.serif.com/" style="fill-rule:evenodd;clip-rule:evenodd;stroke-linejoin:round;stroke-miterlimit:1.41421;"><path id="Forma-1" serif:id="Forma 1" d="M17.851,8.801l-7.882,-7.301l-7.881,7.301c-0.111,0.103 -0.118,0.276 -0.015,0.387c0.103,0.111 0.278,0.118 0.389,0.015l1.187,-1.1l0,9.397l12.641,0l0,-8.498l0,-0.899l1.187,1.1c0.053,0.049 0.12,0.073 0.187,0.073c0.074,0 0.147,-0.03 0.201,-0.088c0.104,-0.111 0.097,-0.284 -0.014,-0.387Zm-8.706,7.054l-3.298,0l0,-3.289l3.298,0l0,3.289Zm0,-4.934l-3.298,0l0,-3.29l3.298,0l0,3.29Zm4.946,4.934l-3.297,0l0,-3.289l3.297,0l0,3.289Zm0,-4.934l-3.297,0l0,-3.29l3.297,0l0,3.29Z" style="fill:#555;fill-rule:nonzero;"/></svg>