<?xml version="1.0" encoding="UTF-8" standalone="no"?><!DOCTYPE svg PUBLIC "-//W3C//DTD SVG 1.1//EN" "http://www.w3.org/Graphics/SVG/1.1/DTD/svg11.dtd"><svg width="100%" height="100%" viewBox="0 0 20 20" version="1.1" xmlns="http://www.w3.org/2000/svg" xmlns:xlink="http://www.w3.org/1999/xlink" xml:space="preserve" xmlns:serif="http://www.serif.com/" style="fill-rule:evenodd;clip-rule:evenodd;stroke-linejoin:round;stroke-miterlimit:1.41421;"><path id="Forma-1-copy-7" serif:id="Forma 1 copy 7" d="M17.428,5.998l-6.621,5.12c-0.248,0.189 -0.572,0.282 -0.895,0.277c-0.324,0.005 -0.648,-0.088 -0.896,-0.277l-6.622,-5.12c-0.492,-0.379 -0.894,-0.176 -0.894,0.452l0,8.4c0,0.628 0.505,1.142 1.122,1.142l14.579,0c0.616,0 1.121,-0.514 1.121,-1.142l0,-8.4c0,-0.628 -0.402,-0.831 -0.894,-0.452Zm-0.678,-1.998c0.617,0.003 0.724,0.321 0.241,0.708l-6.059,4.888c-0.275,0.222 -0.653,0.32 -1.021,0.302c-0.368,0.018 -0.746,-0.08 -1.021,-0.302l-6.06,-4.888c-0.482,-0.387 -0.375,-0.705 0.243,-0.708l13.677,0Z" style="fill:#fff;"/></svg>