<?xml version="1.0" encoding="UTF-8" standalone="no"?><!DOCTYPE svg PUBLIC "-//W3C//DTD SVG 1.1//EN" "http://www.w3.org/Graphics/SVG/1.1/DTD/svg11.dtd"><svg width="100%" height="100%" viewBox="0 0 20 20" version="1.1" xmlns="http://www.w3.org/2000/svg" xmlns:xlink="http://www.w3.org/1999/xlink" xml:space="preserve" xmlns:serif="http://www.serif.com/" style="fill-rule:evenodd;clip-rule:evenodd;stroke-linejoin:round;stroke-miterlimit:1.41421;"><path id="Forma-1-copy-6" serif:id="Forma 1 copy 6" d="M17.828,7.898l0,0.272l-2.783,7.671c-0.075,0.281 -0.352,0.493 -0.667,0.493l-12.18,0c-0.166,0 -0.154,-0.072 -0.154,-0.272l0,-0.272l3.118,-7.778c0.016,-0.063 0.072,-0.108 0.148,-0.114l12.518,0Zm-10.473,-4.898l1.361,1.905l6.735,0c0.41,0 0.744,0.333 0.744,0.743l0,1.706l-11.23,0c-0.315,0 -0.592,0.212 -0.667,0.493l-2.798,7.27l0,-11.374c0,-0.406 0.328,-0.738 0.743,-0.743l5.112,0Z" style="fill:#fff;"/></svg>