<?xml version="1.0" encoding="UTF-8" standalone="no"?><!DOCTYPE svg PUBLIC "-//W3C//DTD SVG 1.1//EN" "http://www.w3.org/Graphics/SVG/1.1/DTD/svg11.dtd"><svg width="100%" height="100%" viewBox="0 0 20 20" version="1.1" xmlns="http://www.w3.org/2000/svg" xmlns:xlink="http://www.w3.org/1999/xlink" xml:space="preserve" xmlns:serif="http://www.serif.com/" style="fill-rule:evenodd;clip-rule:evenodd;stroke-linejoin:round;stroke-miterlimit:1.41421;"><path id="Forma-1" serif:id="Forma 1" d="M18.145,7.643l0,0.286l-2.922,8.054c-0.079,0.296 -0.37,0.518 -0.7,0.518l-12.79,0c-0.175,0 -0.162,-0.076 -0.162,-0.285l0,-0.286l3.274,-8.168c0.017,-0.065 0.075,-0.113 0.155,-0.119l13.145,0Zm-10.997,-5.143l1.429,2l7.073,0c0.43,0 0.78,0.35 0.78,0.781l0,1.791l-11.792,0c-0.331,0 -0.621,0.222 -0.7,0.517l-2.938,7.634l0,-11.942c0,-0.427 0.345,-0.775 0.781,-0.781l5.367,0Z" style="fill:#eb4b4b;"/></svg>