<?xml version="1.0" encoding="UTF-8" standalone="no"?><!DOCTYPE svg PUBLIC "-//W3C//DTD SVG 1.1//EN" "http://www.w3.org/Graphics/SVG/1.1/DTD/svg11.dtd"><svg width="100%" height="100%" viewBox="0 0 20 20" version="1.1" xmlns="http://www.w3.org/2000/svg" xmlns:xlink="http://www.w3.org/1999/xlink" xml:space="preserve" xmlns:serif="http://www.serif.com/" style="fill-rule:evenodd;clip-rule:evenodd;stroke-linejoin:round;stroke-miterlimit:1.41421;"><path id="Forma-1-copy-8" serif:id="Forma 1 copy 8" d="M13.291,2.597c-1.013,-0.731 -2.286,-1.097 -3.818,-1.097c-1.166,0 -2.15,0.258 -2.949,0.772c-1.268,0.805 -1.943,2.173 -2.024,4.102l2.939,0c0,-0.562 0.164,-1.103 0.492,-1.625c0.328,-0.521 0.884,-0.781 1.669,-0.781c0.798,0 1.348,0.211 1.648,0.634c0.301,0.423 0.452,0.892 0.452,1.406c0,0.447 -0.225,0.856 -0.495,1.229c-0.148,0.217 -0.344,0.416 -0.588,0.599c0,0 -1.594,1.022 -2.293,1.843c-0.406,0.477 -0.442,1.19 -0.478,2.213c-0.003,0.073 0.025,0.223 0.28,0.223c0.255,0 2.059,0 2.286,0c0.227,0 0.274,-0.169 0.277,-0.242c0.016,-0.373 0.058,-0.563 0.126,-0.778c0.128,-0.406 0.478,-0.761 0.87,-1.066l0.809,-0.558c0.73,-0.569 1.313,-1.036 1.57,-1.402c0.439,-0.602 0.748,-1.343 0.748,-2.223c0,-1.435 -0.507,-2.518 -1.521,-3.249Zm-3.865,11.28c-1.013,-0.03 -1.849,0.671 -1.881,1.769c-0.032,1.099 0.763,1.824 1.776,1.854c1.058,0.031 1.871,-0.647 1.903,-1.745c0.031,-1.099 -0.741,-1.847 -1.798,-1.878Z" style="fill:#fff;fill-rule:nonzero;"/></svg>