<?xml version="1.0" encoding="UTF-8" standalone="no"?><!DOCTYPE svg PUBLIC "-//W3C//DTD SVG 1.1//EN" "http://www.w3.org/Graphics/SVG/1.1/DTD/svg11.dtd"><svg width="100%" height="100%" viewBox="0 0 26 26" version="1.1" xmlns="http://www.w3.org/2000/svg" xmlns:xlink="http://www.w3.org/1999/xlink" xml:space="preserve" xmlns:serif="http://www.serif.com/" style="fill-rule:evenodd;clip-rule:evenodd;stroke-linejoin:round;stroke-miterlimit:1.41421;"><path id="Forma-1" serif:id="Forma 1" d="M22.435,20.962c-0.092,-5.646 -0.858,-7.255 -6.715,-8.274c0,0 -0.825,1.013 -2.747,1.013c-1.922,0 -2.746,-1.013 -2.746,-1.013c-5.794,1.008 -6.606,2.593 -6.713,8.091c-0.008,0.449 -0.012,0.472 -0.014,0.42c0,0.098 0.001,0.278 0.001,0.593c0,0 1.394,2.709 9.472,2.709c8.078,0 9.473,-2.709 9.473,-2.709c0,-0.202 0,-0.343 0,-0.438c-0.002,0.032 -0.005,-0.031 -0.011,-0.392Zm0.011,0.392c0.003,-0.055 0.001,-0.376 0,0Zm-9.473,-9.116c2.77,0 5.016,-2.628 5.016,-5.869c0,-3.241 -0.737,-5.869 -5.016,-5.869c-4.278,0 -5.015,2.628 -5.015,5.869c0,3.241 2.245,5.869 5.015,5.869Z" style="fill:#fff;"/></svg>