<?xml version="1.0" encoding="UTF-8" standalone="no"?><!DOCTYPE svg PUBLIC "-//W3C//DTD SVG 1.1//EN" "http://www.w3.org/Graphics/SVG/1.1/DTD/svg11.dtd"><svg width="100%" height="100%" viewBox="0 0 20 20" version="1.1" xmlns="http://www.w3.org/2000/svg" xmlns:xlink="http://www.w3.org/1999/xlink" xml:space="preserve" xmlns:serif="http://www.serif.com/" style="fill-rule:evenodd;clip-rule:evenodd;stroke-linejoin:round;stroke-miterlimit:1.41421;"><path id="Forma-1" serif:id="Forma 1" d="M17.451,5.501l-6.631,5.127c-0.248,0.189 -0.573,0.282 -0.896,0.278c-0.325,0.004 -0.649,-0.089 -0.897,-0.278l-6.632,-5.127c-0.492,-0.38 -0.895,-0.176 -0.895,0.452l0,8.412c0,0.629 0.506,1.144 1.123,1.144l14.6,0c0.617,0 1.123,-0.515 1.123,-1.144l0,-8.412c0,-0.628 -0.403,-0.832 -0.895,-0.452Zm-0.679,-2.001c0.618,0.003 0.724,0.321 0.241,0.71l-6.068,4.894c-0.275,0.222 -0.654,0.32 -1.022,0.302c-0.369,0.018 -0.748,-0.08 -1.023,-0.302l-6.068,-4.894c-0.482,-0.389 -0.376,-0.707 0.243,-0.71l13.697,0Z" style="fill:#eb4b4b;"/></svg>