<?xml version="1.0" encoding="UTF-8" standalone="no"?><!DOCTYPE svg PUBLIC "-//W3C//DTD SVG 1.1//EN" "http://www.w3.org/Graphics/SVG/1.1/DTD/svg11.dtd"><svg width="100%" height="100%" viewBox="0 0 18 18" version="1.1" xmlns="http://www.w3.org/2000/svg" xmlns:xlink="http://www.w3.org/1999/xlink" xml:space="preserve" xmlns:serif="http://www.serif.com/" style="fill-rule:evenodd;clip-rule:evenodd;stroke-linejoin:round;stroke-miterlimit:1.41421;"><g><path id="Shape-1" serif:id="Shape 1" d="M13.525,14.548l-3.142,-3.142l1.023,-1.023l3.142,3.142l0,-2.442l1.453,0l0,4.918l-4.918,0l0,-1.453l2.442,0Zm-11.072,-3.465l0,2.442l3.142,-3.142l1.026,1.023l-3.146,3.142l2.442,0l0,1.453l-4.917,0l0,-4.918l1.453,0Zm13.548,-10.083l0,4.917l-1.453,0l0,-2.442l-3.142,3.146l-1.023,-1.026l3.142,-3.142l-2.442,0l0,-1.453l4.918,0Zm-10.084,0l0,1.453l-2.442,0l3.146,3.142l-1.026,1.026l-3.142,-3.146l0,2.442l-1.453,0l0,-4.917l4.917,0Z" style="fill:#fff;"/></g></svg>