<?xml version="1.0" encoding="UTF-8" standalone="no"?><!DOCTYPE svg PUBLIC "-//W3C//DTD SVG 1.1//EN" "http://www.w3.org/Graphics/SVG/1.1/DTD/svg11.dtd"><svg width="100%" height="100%" viewBox="0 0 18 18" version="1.1" xmlns="http://www.w3.org/2000/svg" xmlns:xlink="http://www.w3.org/1999/xlink" xml:space="preserve" xmlns:serif="http://www.serif.com/" style="fill-rule:evenodd;clip-rule:evenodd;stroke-linejoin:round;stroke-miterlimit:1.41421;"><path id="Forma-1" serif:id="Forma 1" d="M14.021,7.306c0,-2.482 -1.683,-4.484 -4.007,-5.045l0,-0.56c0,-0.64 -0.561,-1.201 -1.202,-1.201c-0.641,0 -1.202,0.561 -1.202,1.201l0,0.56c-2.324,0.561 -4.007,2.563 -4.007,5.045l0,4.403l-1.603,1.602l0,0.8l13.624,0l0,-0.8l-1.603,-1.602l0,-4.403Zm-5.209,9.207c0.08,0 0.241,0 0.321,0c0.561,-0.08 0.961,-0.48 1.122,-0.96c0.08,-0.161 0.16,-0.401 0.16,-0.641l-3.206,0c0,0.881 0.722,1.601 1.603,1.601Z" style="fill:#fff;fill-rule:nonzero;"/></svg>