<?xml version="1.0" encoding="UTF-8" standalone="no"?><!DOCTYPE svg PUBLIC "-//W3C//DTD SVG 1.1//EN" "http://www.w3.org/Graphics/SVG/1.1/DTD/svg11.dtd"><svg width="100%" height="100%" viewBox="0 0 20 20" version="1.1" xmlns="http://www.w3.org/2000/svg" xmlns:xlink="http://www.w3.org/1999/xlink" xml:space="preserve" xmlns:serif="http://www.serif.com/" style="fill-rule:evenodd;clip-rule:evenodd;stroke-linejoin:round;stroke-miterlimit:1.41421;"><path id="Forma-1" serif:id="Forma 1" d="M12.144,2l-8.644,0l0,16l12.533,0l0,-12.111l-3.889,-3.889Zm-5.711,3.733l2.667,0c0.147,0 0.267,0.119 0.267,0.267c0,0.147 -0.12,0.267 -0.267,0.267l-2.933,-0.267c-0.148,0 0,0.147 0,0c0,-0.148 0.119,-0.267 0.266,-0.267Zm6.667,9.067l-6.667,0c-0.147,0 -0.266,-0.119 -0.266,-0.267c0,-0.147 0.119,-0.267 0.266,-0.267l6.667,0c0.147,0 0.267,0.12 0.267,0.267c0,0.148 -0.12,0.267 -0.267,0.267Zm0,-2.133l-6.667,0c-0.147,0 -0.266,-0.12 -0.266,-0.267c0,-0.148 0.119,-0.267 0.266,-0.267l6.667,0c0.147,0 0.267,0.119 0.267,0.267c0,0.147 -0.12,0.267 -0.267,0.267Zm0,-2.134l-6.667,0c-0.147,0 -0.266,-0.119 -0.266,-0.266c0,-0.148 0.119,-0.267 0.266,-0.267l6.667,0c0.147,0 0.267,0.119 0.267,0.267c0,0.147 -0.12,0.266 -0.267,0.266Zm0,-2.133l-6.667,0c-0.147,0 -0.266,-0.119 -0.266,-0.267c0,-0.147 0.119,-0.266 0.266,-0.266l6.667,0c0.147,0 0.267,0.119 0.267,0.266c0,0.148 -0.12,0.267 -0.267,0.267Zm-1.333,-2.133l0,-3.734l3.733,3.734l-3.733,0Z" style="fill:#eb4b4b;fill-rule:nonzero;"/></svg>