<?xml version="1.0" encoding="UTF-8" standalone="no"?><!DOCTYPE svg PUBLIC "-//W3C//DTD SVG 1.1//EN" "http://www.w3.org/Graphics/SVG/1.1/DTD/svg11.dtd"><svg width="100%" height="100%" viewBox="0 0 20 20" version="1.1" xmlns="http://www.w3.org/2000/svg" xmlns:xlink="http://www.w3.org/1999/xlink" xml:space="preserve" xmlns:serif="http://www.serif.com/" style="fill-rule:evenodd;clip-rule:evenodd;stroke-linejoin:round;stroke-miterlimit:1.41421;"><path id="Shape-1" serif:id="Shape 1" d="M4.06,17.525l-2.409,0c-0.194,0 -0.348,-0.155 -0.348,-0.341l0,-3.059c0.51,-0.035 0.984,-0.244 1.355,-0.605l1.749,-1.717l0,5.381c0,0.189 -0.156,0.339 -0.347,0.341Zm4.304,0l-2.409,0c-0.193,0 -0.347,-0.155 -0.347,-0.341l0,-5.419l1.654,1.623c0.387,0.38 0.901,0.594 1.45,0.605l0,3.191c0,0.189 -0.157,0.339 -0.348,0.341Zm4.305,0l-2.409,0c-0.194,0 -0.348,-0.155 -0.348,-0.341l0,-3.528c0.123,-0.078 0.237,-0.167 0.344,-0.271l2.76,-2.71l0,6.509c0,0.189 -0.156,0.339 -0.347,0.341Zm4.304,0l-2.409,0c-0.193,0 -0.347,-0.155 -0.347,-0.341l0,-7.691l2.871,-2.818l0.051,0.05c0.044,0.039 0.103,0.097 0.182,0.163l0,10.296c0,0.189 -0.157,0.339 -0.348,0.341Zm1.576,-16.025c0.223,0.001 0.395,0.063 0.509,0.182c0.123,0.124 0.174,0.299 0.162,0.524l-0.051,1.073c-0.036,0.717 -0.071,1.431 -0.103,2.144c-0.008,0.166 -0.039,0.38 -0.209,0.546c-0.047,0.047 -0.103,0.085 -0.166,0.12c-0.095,0.051 -0.185,0.074 -0.276,0.074c-0.217,0 -0.36,-0.139 -0.462,-0.24l-0.865,-0.845l-7.646,7.504c-0.185,0.179 -0.426,0.279 -0.687,0.279c-0.26,0 -0.505,-0.1 -0.687,-0.279l-3.045,-2.988l-3.187,3.128c-0.181,0.178 -0.422,0.279 -0.683,0.279c-0.261,0 -0.505,-0.101 -0.687,-0.279l-0.182,-0.178c-0.379,-0.373 -0.379,-0.973 0,-1.346l4.056,-3.977c0.182,-0.178 0.423,-0.279 0.683,-0.279c0.261,0 0.506,0.101 0.687,0.279l3.045,2.989l6.777,-6.656c-0.198,-0.189 -0.395,-0.383 -0.589,-0.577l-0.28,-0.279c-0.11,-0.109 -0.344,-0.338 -0.178,-0.69c0.032,-0.07 0.071,-0.128 0.123,-0.179c0.162,-0.158 0.367,-0.166 0.517,-0.174l3.361,-0.155l0.063,0Z" style="fill:#555;"/></svg>