<?xml version="1.0" encoding="UTF-8" standalone="no"?><!DOCTYPE svg PUBLIC "-//W3C//DTD SVG 1.1//EN" "http://www.w3.org/Graphics/SVG/1.1/DTD/svg11.dtd"><svg width="100%" height="100%" viewBox="0 0 14 14" version="1.1" xmlns="http://www.w3.org/2000/svg" xmlns:xlink="http://www.w3.org/1999/xlink" xml:space="preserve" xmlns:serif="http://www.serif.com/" style="fill-rule:evenodd;clip-rule:evenodd;stroke-linejoin:round;stroke-miterlimit:1.41421;"><path id="Forma-1" serif:id="Forma 1" d="M13.821,12.998l-3.364,-3.363c0.834,-1.017 1.336,-2.319 1.336,-3.738c0,-3.256 -2.641,-5.897 -5.896,-5.897c-3.259,0 -5.897,2.641 -5.897,5.897c0,3.255 2.638,5.896 5.897,5.896c1.419,0 2.718,-0.499 3.735,-1.333l3.364,3.361c0.228,0.228 0.596,0.228 0.825,0c0.228,-0.226 0.228,-0.597 0,-0.823Zm-7.924,-2.378c-2.607,0 -4.726,-2.119 -4.726,-4.723c0,-2.605 2.119,-4.726 4.726,-4.726c2.604,0 4.726,2.121 4.726,4.726c0,2.604 -2.122,4.723 -4.726,4.723Z" style="fill:#7f8791;fill-rule:nonzero;"/></svg>