<?xml version="1.0" encoding="UTF-8" standalone="no"?><!DOCTYPE svg PUBLIC "-//W3C//DTD SVG 1.1//EN" "http://www.w3.org/Graphics/SVG/1.1/DTD/svg11.dtd"><svg width="100%" height="100%" viewBox="0 0 18 18" version="1.1" xmlns="http://www.w3.org/2000/svg" xmlns:xlink="http://www.w3.org/1999/xlink" xml:space="preserve" xmlns:serif="http://www.serif.com/" style="fill-rule:evenodd;clip-rule:evenodd;stroke-linejoin:round;stroke-miterlimit:1.41421;"><path id="Forma-1-copy" serif:id="Forma 1 copy" d="M15.923,7.338l-1.586,-0.264c-0.115,-0.471 -0.283,-0.922 -0.502,-1.342l1.015,-1.258c0.216,-0.266 0.206,-0.649 -0.021,-0.906l-0.631,-0.71c-0.229,-0.256 -0.608,-0.311 -0.897,-0.128l-1.356,0.853c-0.597,-0.417 -1.272,-0.725 -2.001,-0.903l-0.265,-1.595c-0.056,-0.337 -0.348,-0.585 -0.691,-0.585l-0.951,0c-0.342,0 -0.635,0.248 -0.69,0.585l-0.266,1.595c-0.603,0.148 -1.168,0.386 -1.683,0.699l-1.29,-0.92c-0.278,-0.198 -0.66,-0.167 -0.902,0.075l-0.672,0.672c-0.242,0.242 -0.273,0.624 -0.074,0.902l0.923,1.292c-0.311,0.512 -0.547,1.074 -0.694,1.671l-1.604,0.267c-0.337,0.056 -0.585,0.348 -0.585,0.691l0,0.95c0,0.343 0.248,0.635 0.585,0.691l1.604,0.268c0.121,0.491 0.297,0.96 0.53,1.396l-1.01,1.252c-0.215,0.265 -0.206,0.648 0.021,0.905l0.631,0.709c0.228,0.258 0.608,0.311 0.897,0.128l1.376,-0.864c0.582,0.399 1.24,0.691 1.947,0.864l0.266,1.595c0.055,0.338 0.348,0.585 0.69,0.585l0.951,0c0.343,0 0.635,-0.247 0.691,-0.585l0.265,-1.595c0.595,-0.145 1.153,-0.379 1.664,-0.687l1.344,0.959c0.277,0.2 0.659,0.168 0.902,-0.075l0.671,-0.671c0.242,-0.242 0.275,-0.624 0.074,-0.902l-0.956,-1.341c0.311,-0.514 0.548,-1.076 0.695,-1.676l1.586,-0.265c0.338,-0.056 0.585,-0.348 0.585,-0.691l0,-0.95c-0.001,-0.343 -0.248,-0.635 -0.586,-0.691Zm-7.393,4.168c-1.658,0 -3.002,-1.345 -3.002,-3.002c0,-1.657 1.344,-3.001 3.002,-3.001c1.657,0 3.001,1.344 3.001,3.001c0,1.657 -1.344,3.002 -3.001,3.002Z" style="fill:#fff;fill-rule:nonzero;"/></svg>